# xmcd
#
# Track frame offsets:
#	217
#	16682
#	30530
#	50372
#	74922
#	95225
#	125772
#	146120
#	167220
#
# Disc length: 2681 seconds
#
# Revision: 0
# Processed by: cddbd v1.5.2PL0 Copyright (c) Steve Scherf et al.
# Submitted via: audiograbber 1.83.01
#
DISCID=860a7709
DTITLE=Bobby King and Terry Evans - Live And Let Live
DYEAR=1988
DGENRE=Soul
TTITLE0=Just A Little Bit
TTITLE1=Bald Head
TTITLE2=Seeing Is Believing
TTITLE3=Let Love Begin
TTITLE4=Saturday Night
TTITLE5=Let Me Go Back To The Country
TTITLE6=Got To Keep Moving
TTITLE7=Live And Let Live
TTITLE8=At The Dark End Of The Street
EXTD=1988
EXTT0=
EXTT1=
EXTT2=
EXTT3=
EXTT4=
EXTT5=
EXTT6=
EXTT7=
EXTT8=
PLAYORDER=
